<!-- Generator: Adobe Illustrator 23.0.4, SVG Export Plug-In  -->
<svg version="1.1" xmlns="http://www.w3.org/2000/svg" xmlns:xlink="http://www.w3.org/1999/xlink" x="0px" y="0px"
	 width="152.37px" height="102.24px" viewBox="0 0 152.37 102.24" style="enable-background:new 0 0 152.37 102.24;"
	 xml:space="preserve">
<style type="text/css">
	.st0{fill-rule:evenodd;clip-rule:evenodd;fill:#EC6C00;}
</style>
<defs>
</defs>
<path class="st0" d="M0,50.98c0,0,44.98,0.28,58.91-10.03C72.84,30.64,73.64,14.91,76.31,0c0,0,0.27,34.16,20.64,42.85
	c0,0-10.46-2.71-24.65,3.8c-14.19,6.5-15.8,7.03-21.42,7.03C45.25,53.68,4.55,51.53,0,50.98z"/>
<path class="st0" d="M152.37,51.26c0,0-44.99-0.28-58.92,10.03c-13.91,10.3-14.72,26.03-17.4,40.96c0,0-0.26-34.19-20.61-42.85
	c0,0,10.44,2.69,24.63-3.8c14.2-6.52,15.8-7.05,21.41-7.05C107.1,48.55,147.81,50.7,152.37,51.26z"/>
</svg>
